<?xml version="1.0" standalone="no"?>
<!DOCTYPE svg PUBLIC "-//W3C//DTD SVG 20010904//EN"
 "http://www.w3.org/TR/2001/REC-SVG-20010904/DTD/svg10.dtd">
<svg version="1.0" xmlns="http://www.w3.org/2000/svg"
 width="512.000000pt" height="512.000000pt" viewBox="0 0 512.000000 512.000000"
 preserveAspectRatio="xMidYMid meet">

<g transform="translate(0.000000,512.000000) scale(0.100000,-0.100000)"
fill="#000000" stroke="none">
<path d="M30 2560 l0 -2530 2528 2 2527 3 3 2528 2 2527 -2530 0 -2530 0 0
-2530z m2470 1240 l0 -1180 -1180 0 -1180 0 0 1180 0 1180 1180 0 1180 0 0
-1180z m2470 0 l0 -1180 -1180 0 -1180 0 0 1173 c0 646 3 1177 7 1180 3 4 534
7 1180 7 l1173 0 0 -1180z m-2470 -2475 l0 -1175 -1180 0 -1180 0 0 1175 0
1175 1180 0 1180 0 0 -1175z m2470 0 l0 -1175 -1175 0 -1175 0 0 1175 0 1175
1175 0 1175 0 0 -1175z"/>
<path d="M1280 4690 c-17 -17 -20 -33 -20 -125 0 -92 3 -108 20 -125 11 -11
29 -20 40 -20 11 0 29 9 40 20 17 17 20 33 20 125 0 92 -3 108 -20 125 -11 11
-29 20 -40 20 -11 0 -29 -9 -40 -20z"/>
<path d="M686 4444 c-31 -30 -19 -62 47 -131 77 -81 104 -96 138 -80 17 9 25
22 27 46 3 30 -4 41 -71 107 -77 78 -109 91 -141 58z"/>
<path d="M1817 4382 c-80 -80 -95 -115 -62 -142 34 -28 65 -15 141 61 60 60
74 79 74 104 0 38 -16 55 -50 55 -19 0 -46 -21 -103 -78z"/>
<path d="M1213 4276 c-242 -59 -405 -300 -365 -538 47 -279 321 -462 587 -393
256 67 415 329 350 578 -66 253 -324 413 -572 353z m258 -138 c76 -35 129 -85
170 -160 33 -60 34 -68 34 -168 0 -100 -1 -108 -34 -168 -39 -72 -88 -120
-163 -159 -48 -25 -63 -28 -153 -28 -87 0 -107 3 -156 26 -79 37 -133 90 -171
167 -30 61 -33 75 -33 162 0 77 4 104 22 143 45 98 116 163 216 199 76 27 194
21 268 -14z"/>
<path d="M440 3850 c-11 -11 -20 -29 -20 -40 0 -11 9 -29 20 -40 17 -17 33
-20 125 -20 92 0 108 3 125 20 11 11 20 29 20 40 0 11 -9 29 -20 40 -17 17
-33 20 -125 20 -92 0 -108 -3 -125 -20z"/>
<path d="M1956 3849 c-31 -24 -33 -52 -6 -79 17 -17 33 -20 123 -20 118 0 147
12 147 60 0 47 -30 60 -141 60 -82 0 -100 -3 -123 -21z"/>
<path d="M747 3312 c-55 -56 -77 -85 -77 -103 0 -33 17 -49 54 -49 45 0 176
131 176 175 0 38 -16 55 -50 55 -19 0 -46 -21 -103 -78z"/>
<path d="M1752 3378 c-7 -7 -12 -25 -12 -42 0 -23 15 -45 73 -103 58 -58 80
-73 103 -73 38 0 54 16 54 54 0 43 -133 176 -176 176 -17 0 -35 -5 -42 -12z"/>
<path d="M1281 3174 c-18 -23 -21 -41 -21 -123 0 -111 13 -141 60 -141 48 0
60 29 60 147 0 90 -3 106 -20 123 -27 27 -55 25 -79 -6z"/>
<path d="M3757 4553 c-8 -10 -18 -40 -22 -68 -16 -122 -56 -216 -171 -402
-134 -217 -188 -351 -200 -503 -27 -331 251 -598 537 -514 245 72 379 361 300
648 -29 107 -63 176 -176 366 -116 193 -162 298 -171 393 -5 53 -11 71 -28 82
-27 20 -49 19 -69 -2z m172 -537 c145 -239 176 -323 175 -476 0 -128 -22 -194
-90 -269 -120 -134 -298 -140 -426 -14 -69 67 -101 146 -106 258 -7 153 31
262 176 502 50 81 100 169 113 195 l22 47 32 -62 c18 -34 65 -115 104 -181z"/>
<path d="M930 2040 c-24 -24 -25 -41 -5 -80 15 -29 15 -30 -8 -30 -27 0 -57
-28 -57 -54 0 -39 20 -54 93 -71 l73 -18 42 -73 c23 -40 42 -76 42 -79 0 -4
-23 -47 -52 -96 l-52 -89 -85 0 -84 0 -58 55 c-71 67 -100 71 -128 17 -10 -19
-10 -28 4 -48 l15 -24 -40 0 c-31 0 -43 -5 -56 -26 -27 -40 -9 -76 42 -89 38
-9 41 -12 33 -33 -17 -46 32 -90 77 -70 12 6 38 30 58 54 l37 44 94 0 93 0 51
-89 c28 -48 51 -91 51 -94 0 -3 -19 -38 -43 -78 l-43 -73 -67 -17 c-78 -20
-97 -32 -97 -65 0 -32 36 -67 62 -61 15 4 18 2 13 -11 -29 -69 -29 -70 -10
-92 28 -31 74 -23 101 17 19 29 22 30 27 13 8 -30 54 -44 83 -25 29 19 30 46
8 126 l-16 58 42 75 41 76 109 0 108 0 41 -71 c46 -79 47 -88 26 -149 -22 -62
-19 -97 9 -115 29 -19 75 -5 83 26 5 18 8 16 30 -16 18 -26 31 -35 52 -35 51
0 78 54 46 96 -19 25 -19 35 0 28 26 -10 65 23 65 55 0 39 -24 57 -99 73 l-64
14 -44 76 -44 77 52 90 51 91 92 0 92 0 44 -46 c61 -62 76 -69 105 -50 29 19
39 49 26 74 -9 17 -6 20 29 26 86 14 78 116 -9 116 -28 0 -32 3 -26 18 17 39
16 51 -4 71 -34 34 -60 26 -118 -34 l-53 -55 -88 0 -88 0 -50 88 c-27 48 -49
92 -49 97 0 6 18 42 39 81 l40 71 71 17 c81 19 95 29 95 66 0 32 -28 60 -58
60 -21 0 -21 1 -5 35 21 43 7 81 -34 91 -23 6 -32 2 -57 -28 l-31 -36 -18 24
c-21 29 -58 31 -80 6 -21 -23 -21 -38 0 -116 l16 -63 -43 -76 -44 -77 -105 0
-106 0 -44 77 c-44 77 -44 78 -31 123 23 79 24 109 5 130 -25 27 -60 25 -84
-6 l-20 -25 -15 29 c-24 46 -63 55 -96 22z m549 -551 c60 -103 61 -89 -10
-211 l-40 -68 -109 0 -108 0 -52 90 c-28 50 -50 94 -48 98 2 5 26 48 53 95
l50 87 105 0 106 0 53 -91z"/>
<path d="M4220 1840 c-42 -42 -17 -88 55 -101 100 -19 155 -81 155 -177 0 -57
-26 -104 -79 -139 l-34 -23 -607 0 c-416 0 -617 -3 -639 -11 -52 -18 -55 -90
-4 -110 14 -5 270 -9 617 -9 650 0 666 1 751 60 81 56 134 173 120 270 -15
110 -97 211 -196 243 -69 23 -114 22 -139 -3z"/>
<path d="M3386 1604 c-9 -8 -16 -28 -16 -44 0 -60 -1 -60 364 -60 310 0 334 1
349 18 22 24 21 65 -1 85 -17 15 -56 17 -350 17 -287 0 -333 -2 -346 -16z"/>
<path d="M3272 1148 c-7 -7 -12 -27 -12 -44 0 -64 2 -64 413 -64 321 0 373 -2
404 -16 86 -41 119 -153 69 -238 -28 -47 -90 -86 -139 -86 -33 0 -67 -32 -67
-63 0 -80 152 -74 249 9 67 58 94 113 99 205 4 61 0 90 -13 126 -24 62 -88
131 -150 159 -50 24 -52 24 -445 24 -295 0 -399 -3 -408 -12z"/>
</g>
</svg>
